Coordinates
version=1
nRows=8
nColumns=63
inDegrees=yes

Units are S.I. units (second, meters, Newtons, ...)
If the header above contains a line with 'inDegrees', this indicates whether rotational values are in degrees (yes) or radians (no).

endheader
time	pelvis_tilt	pelvis_list	pelvis_rotation	pelvis_tx	pelvis_ty	pelvis_tz	hip_flexion_r	hip_adduction_r	hip_rotation_r	knee_angle_r	knee_angle_r_beta	ankle_angle_r	subtalar_angle_r	mtp_angle_r	hip_flexion_l	hip_adduction_l	hip_rotation_l	knee_angle_l	knee_angle_l_beta	ankle_angle_l	subtalar_angle_l	mtp_angle_l	L5_S1_Flex_Ext	L5_S1_Lat_Bending	L5_S1_axial_rotation	L4_L5_Flex_Ext	L4_L5_Lat_Bending	L4_L5_axial_rotation	L3_L4_Flex_Ext	L3_L4_Lat_Bending	L3_L4_axial_rotation	L2_L3_Flex_Ext	L2_L3_Lat_Bending	L2_L3_axial_rotation	L1_L2_Flex_Ext	L1_L2_Lat_Bending	L1_L2_axial_rotation	L1_T12_Flex_Ext	L1_T12_Lat_Bending	L1_T12_axial_rotation	Abs_r3	Abs_r2	Abs_r1	Abs_t1	Abs_t2	neck_flexion	neck_bending	neck_rotation	arm_flex_r	arm_add_r	arm_rot_r	elbow_flex_r	pro_sup_r	wrist_flex_r	wrist_dev_r	arm_flex_l	arm_add_l	arm_rot_l	elbow_flex_l	pro_sup_l	wrist_flex_l	wrist_dev_l
      0.00000000	     -0.19693819	     -5.20203724	     99.06879798	      0.26333935	      0.69154781	      0.90886698	      2.64132365	     -0.40799991	     -8.67469799	      5.03413149	      0.08786217	     19.50124143	     12.66234314	      0.00000000	      3.06368524	      0.89201619	      1.09571559	      4.50776885	      0.07867541	     20.05752584	      0.02773539	      0.00000000	      0.18773299	      0.20454116	     -0.30730570	      0.34863894	      0.27203974	     -0.32651230	      0.30842654	      0.49732137	     -0.32651230	      0.21456004	      0.49732137	     -0.26889249	      0.17432886	      0.41710033	     -0.24968588	      0.10727063	      0.31683425	     -0.23047927	      1.34095801	      2.31381047	     -1.70914210	      0.00000000	      0.00000000	     28.13539563	     -2.33818391	      6.52078982	      8.87439603	    -12.29562805	    117.19967139	     16.26580362	      7.54575597	     -0.67958719	     -7.13228837	     -3.56954487	    -15.13812187	     49.83763195	     27.69887550	     71.87923506	     -9.72171722	     -5.35935511
      0.01666667	      0.37503116	     -5.11053028	     99.91679455	      0.26173132	      0.69104885	      0.90652383	      2.15718519	      0.25079228	     -7.80296311	      4.15064163	      0.07244236	     19.67234738	     10.97512409	      0.00000000	      2.83631144	      0.34416889	      2.59201912	      4.09289218	      0.07143444	     20.31154722	     -0.59095626	      0.00000000	      0.20963576	      0.27829886	     -0.66521873	      0.38931456	      0.37013749	     -0.70679490	      0.34441058	      0.67665586	     -0.70679490	      0.23959271	      0.67665586	     -0.58206639	      0.19466776	      0.56750704	     -0.54049022	      0.11978587	      0.43108494	     -0.49891405	      1.49740725	      3.14817241	     -3.69974701	      0.00000000	      0.00000000	     28.14444154	     -1.81178243	      7.85435548	      9.07118623	    -12.52772573	    118.09508118	     16.69083790	      7.47294986	     -1.51603455	     -8.23725641	     -4.62271434	    -14.63153273	     48.42876685	     27.20886983	     72.17092806	     -9.91856016	     -7.29769844
      0.03333333	      0.72462663	     -4.98352396	    100.40907840	      0.26102228	      0.69066527	      0.90362082	      1.24355068	      0.96429535	     -0.41421766	      2.49445843	      0.04353651	     17.86385885	      0.48688969	      0.00000000	      2.18971675	      0.06862452	      7.19012243	      3.04919649	      0.05321852	     19.06102075	     -6.23138818	      0.00000000	      0.23101703	      0.31526229	     -0.87032699	      0.42902174	      0.41929884	     -0.92472243	      0.37953789	      0.76652873	     -0.92472243	      0.26402937	      0.76652873	     -0.76153612	      0.21452242	      0.64288286	     -0.70714068	      0.13200313	      0.48834128	     -0.65274524	      1.65013158	      3.56631005	     -4.84049763	      0.00000000	      0.00000000	     28.14532375	     -1.55368120	      8.28620612	      9.31513271	    -12.42626729	    120.71328091	     16.72109915	      6.11037495	     -1.40784205	     -8.95302905	     -5.51537113	    -14.26601393	     45.85809340	     27.15594242	     74.64004819	     -9.32233684	     -7.09429232
      0.05000000	      0.91533160	     -4.92999275	    100.64162199	      0.26080092	      0.69050572	      0.90191164	      1.03382420	      1.16847335	     -0.28613019	      2.23986363	      0.03909300	     17.97163962	      0.32688706	      0.00000000	      1.97650087	     -0.17561110	      7.49860269	      2.75127844	      0.04801887	     19.15054867	     -6.12215718	      0.00000000	      0.24612387	      0.32910958	     -0.94516352	      0.45707664	      0.43771574	     -1.00423624	      0.40435690	      0.80019702	     -1.00423624	      0.28129497	      0.80019702	     -0.82701808	      0.22855062	      0.67112025	     -0.76794536	      0.14063518	      0.50979073	     -0.70887264	      1.75803818	      3.72295334	     -5.25671595	      0.00000000	      0.00000000	     28.14854608	     -1.32464688	      8.18330049	      9.55182864	    -12.42810693	    121.13520955	     16.97305982	      6.47019499	     -1.35708317	     -8.67822606	     -5.46383265	    -14.13028710	     46.06576869	     26.85143276	     74.66378075	     -9.05938305	     -6.84789629
      0.06666667	      0.96633163	     -4.93022579	    100.76757815	      0.26146795	      0.69039329	      0.90049344	      0.93240650	      1.28475047	     -0.35579375	      2.13173911	      0.03720587	     18.00365370	      0.19965104	      0.00000000	      1.88971479	     -0.29449209	      7.56005179	      2.65293456	      0.04630244	     19.16499348	     -6.13491396	      0.00000000	      0.26078852	      0.31791554	     -0.95221692	      0.48431037	      0.42282767	     -1.01173047	      0.42844947	      0.77297985	     -1.01173047	      0.29805520	      0.77297985	     -0.83318980	      0.24216822	      0.64829337	     -0.77367624	      0.14901456	      0.49245118	     -0.71416269	      1.86278635	      3.59632420	     -5.29594482	      0.00000000	      0.00000000	     28.15018145	     -1.23542476	      8.11133059	      9.76524738	    -12.24283615	    121.33610093	     17.13936455	      6.65177932	     -1.26649971	     -8.46946934	     -5.26461412	    -14.12686510	     46.16061939	     26.63101009	     74.65933589	     -8.92816627	     -6.59127128
      0.08333333	      0.90995517	     -4.64669995	    101.48255158	      0.26082413	      0.69086605	      0.89945673	      0.21673491	      1.37867995	      2.06605875	      1.50007273	      0.02618121	     16.68170072	     -4.34846949	      0.00000000	      1.36218761	     -0.27992373	     10.47861584	      2.12698613	      0.03712291	     17.96803752	     -9.27423417	      0.00000000	      0.23356417	      0.29830151	     -1.02825102	      0.43375202	      0.39674101	     -1.09251671	      0.38372258	      0.72529029	     -1.09251671	      0.26694049	      0.72529029	     -0.89971964	      0.21688769	      0.60829644	     -0.83545395	      0.13345857	      0.46206904	     -0.77118826	      1.66832552	      3.37444633	     -5.71882369	      0.00000000	      0.00000000	     28.13627410	     -1.08912152	      7.40658245	     10.55881363	    -11.63175247	    125.48933059	     16.70107100	      5.88142592	     -0.10091211	     -7.54946999	     -3.90395573	    -14.50262442	     50.37747175	     26.25161982	     71.20185408	     -7.63961447	     -5.01575201
      0.10000000	      0.75494070	     -4.51911926	    101.72171254	      0.26140835	      0.69109214	      0.89865352	     -0.04127583	      1.30948747	      1.76239785	      1.46749379	      0.02561260	     16.57179409	     -4.43558829	      0.00000000	      1.16012450	     -0.21490926	     10.57489507	      2.07239390	      0.03617010	     17.67190524	     -9.14134891	      0.00000000	      0.22081050	      0.25764768	     -0.98623350	      0.41006719	      0.34267141	     -1.04787310	      0.36276958	      0.62644456	     -1.04787310	      0.25236433	      0.62644456	     -0.86295431	      0.20504463	      0.52539514	     -0.80131472	      0.12617112	      0.39909625	     -0.73967513	      1.57722735	      2.91456204	     -5.48513486	      0.00000000	      0.00000000	     28.12409633	     -0.81781149	      6.71414169	     11.04505710	    -11.19422488	    125.90573283	     16.67800977	      6.33972774	      0.77056034	     -6.35936597	     -3.07352387	    -14.70790081	     51.30555086	     26.23518550	     71.22357539	     -6.50455987	     -2.93070771
      0.11666667	      0.50241857	     -4.44970643	    101.90105495	      0.26217584	      0.69124191	      0.89821616	     -0.23234956	      1.12893114	      1.36275682	      1.45262848	      0.02535315	     16.43216530	     -4.40668542	      0.00000000	      1.03469910	     -0.03128669	     10.56077867	      2.06112837	      0.03597348	     17.27895751	     -9.09109674	      0.00000000	      0.20882532	      0.20076156	     -0.90091222	      0.38780950	      0.26701287	     -0.95721924	      0.34307912	      0.48813165	     -0.95721924	      0.23866646	      0.48813165	     -0.78829819	      0.19391519	      0.40939297	     -0.73199118	      0.11932279	      0.31097965	     -0.67568417	      1.49161836	      2.27105490	     -5.01060351	      0.00000000	      0.00000000	     28.10562360	     -0.73588967	      5.63012730	     11.45625256	    -10.71853053	    125.45380770	     16.53330025	      6.27413183	      2.19333167	     -5.54183707	     -2.05086117	    -14.97553888	     52.55234157	     26.29463342	     70.99377616	     -5.19652354	     -0.39859863
